<svg width="47" height="45" viewBox="0 0 47 45" fill="none" xmlns="http://www.w3.org/2000/svg">
<g clip-path="url(#clip0_228_15)">
<path d="M1.11596 0C0.819997 2.80343e-05 0.536166 0.111423 0.326889 0.309685C0.117613 0.507947 2.95917e-05 0.77684 0 1.05722V43.3462C2.95917e-05 43.6266 0.117613 43.8955 0.326889 44.0937C0.536166 44.292 0.819997 44.4034 1.11596 44.4034H45.7543C46.0503 44.4034 46.3341 44.292 46.5434 44.0937C46.7527 43.8955 46.8702 43.6266 46.8703 43.3462V1.05722C46.8702 0.77684 46.7527 0.507947 46.5434 0.309685C46.3341 0.111423 46.0503 2.80343e-05 45.7543 0H1.11596ZM2.23192 2.11445H44.6384V42.289H2.23192V2.11445ZM12.2755 20.0873V23.7297H17.8553V40.1745H22.3192V23.7297H27.899V20.0873H12.2755ZM36.4823 20.0976C33.0065 20.0845 29.0345 21.0823 29.0345 25.7162C29.0345 31.774 37.6505 31.7755 37.6505 34.5085C37.6505 34.7675 37.7665 36.6498 34.7255 36.6498C31.6845 36.6498 29.1501 34.8388 29.1501 34.8388V39.235C29.1501 39.235 42.4086 43.2976 42.4086 34.1368C42.4075 28.1899 33.712 28.4873 33.712 25.5324C33.712 24.3874 34.5706 23.3167 36.9487 23.3168C39.3268 23.3168 41.4322 24.6465 41.4322 24.6465L41.5891 20.7294C41.5891 20.7294 39.1857 20.1078 36.4823 20.0976Z" fill="#4B4E59"/>
</g>
<defs>
<clipPath id="clip0_228_15">
<rect width="46.8703" height="44.4034" fill="white"/>
</clipPath>
</defs>
</svg>
