<svg width="46" height="45" viewBox="0 0 46 45" fill="none" xmlns="http://www.w3.org/2000/svg">
<path d="M42.9644 19.8443L26.001 2.88096C25.2817 2.15808 24.3342 1.79663 23.3867 1.79663C22.4392 1.79663 21.4918 2.15808 20.7724 2.88096L17.4176 6.23573L21.569 10.3871C22.9481 9.57646 24.7448 9.75191 25.9273 10.9345C27.1099 12.1171 27.2819 13.9138 26.4713 15.2894L30.5524 19.3705C31.9315 18.5599 33.7282 18.7354 34.9108 19.918C36.3145 21.3216 36.3145 23.5956 34.9108 24.9992C33.5072 26.4029 31.2332 26.4029 29.8295 24.9992C28.647 23.8167 28.4715 22.02 29.2821 20.6409L25.201 16.5597C24.9097 16.7316 24.6044 16.858 24.2851 16.9387V27.975C25.8326 28.3751 26.9801 29.7682 26.9801 31.4421C26.9801 33.4283 25.3729 35.0355 23.3867 35.0355C21.4005 35.0355 19.7933 33.4283 19.7933 31.4421C19.7933 29.7682 20.9408 28.3751 22.4884 27.975V16.9387C21.8883 16.7843 21.3163 16.486 20.8461 16.0158C19.6635 14.8332 19.4915 13.0365 20.3022 11.6609L16.1473 7.50605L3.80906 19.8443C2.36329 21.2865 2.36329 23.6307 3.80906 25.0729L20.7724 42.0363C21.4918 42.7591 22.4392 43.1206 23.3867 43.1206C24.3342 43.1206 25.2817 42.7591 26.001 42.0363L42.9644 25.0729C44.4101 23.6307 44.4101 21.2865 42.9644 19.8443Z" fill="#4B4E59"/>
</svg>
