<svg width="46" height="47" viewBox="0 0 46 47" fill="none" xmlns="http://www.w3.org/2000/svg">
<path d="M0 0.657959V46.0707H45.4128V0.657959H0ZM4.12843 4.78639H41.2843V41.9423H4.12843V4.78639ZM31.4672 21.3001C28.5257 21.3001 26.6252 23.183 26.6252 25.6745C26.6252 28.3807 28.212 29.6742 30.6044 30.6939L31.4309 31.0487C32.9419 31.7154 33.8419 32.1046 33.8419 33.2419C33.8419 34.2018 32.9609 34.8909 31.5882 34.8909C29.9616 34.8909 29.0365 34.029 28.3306 32.871L25.6253 34.4192C26.5852 36.341 28.5849 37.8139 31.6648 37.8139C34.8024 37.8139 37.1559 36.1864 37.1559 33.2057C37.1559 30.421 35.5671 29.1838 32.7412 27.9887L31.9188 27.6339C30.4883 27.0064 29.8787 26.5945 29.8787 25.614C29.8787 24.809 30.4867 24.1828 31.4672 24.1828C32.4291 24.1828 33.0343 24.5943 33.604 25.614L36.1964 23.9489C35.0982 22.0271 33.5851 21.3001 31.4672 21.3001ZM19.3923 21.4977V32.7743C19.3923 34.4215 18.6859 34.8506 17.6063 34.8506C16.4689 34.8506 15.9794 34.0679 15.4695 33.1452L12.7643 34.774C13.5487 36.4419 15.095 37.8139 17.7434 37.8139C20.6849 37.8139 22.7064 36.2433 22.7064 32.8105V21.4977H19.3923Z" fill="#4B4E59"/>
</svg>
