<svg width="46" height="46" viewBox="0 0 46 46" fill="none" xmlns="http://www.w3.org/2000/svg">
<path fill-rule="evenodd" clip-rule="evenodd" d="M0.530757 0.316783C0.756545 0.101492 1.08108 0.0217965 1.38224 0.107687L12.0933 3.1625C12.1557 3.16652 12.2182 3.1772 12.2797 3.19477C12.3408 3.21224 12.3991 3.236 12.4537 3.26529L33.581 9.2908C33.6381 9.29552 33.6952 9.30582 33.7514 9.3219C33.8073 9.33788 33.8608 9.35912 33.9114 9.38503L44.6268 12.4411C44.9283 12.5271 45.1605 12.7659 45.2359 13.0675C45.3114 13.3692 45.2186 13.6877 44.9925 13.9032L12.5354 44.8309C12.3094 45.0462 11.9846 45.1258 11.6833 45.0395C11.382 44.9533 11.1501 44.7144 11.0749 44.4128L5.69374 22.8328C5.68926 22.8182 5.68514 22.8035 5.68141 22.7885C5.67758 22.7732 5.67418 22.7578 5.67121 22.7424L0.28735 1.15167C0.212196 0.850288 0.30497 0.532073 0.530757 0.316783ZM7.75097 23.8318L9.70229 31.6572L15.5624 26.0616L7.75097 23.8318ZM16.9054 27.1943L11.0379 32.797L18.8545 35.0198L16.9054 27.1943ZM18.5053 36.7296L10.3918 34.4224L12.4144 42.5335L18.5053 36.7296ZM20.5929 34.7403L26.4417 29.1671L18.6509 26.9432L20.5929 34.7403ZM18.9617 25.2223L26.9278 27.4962L24.9395 19.5144L18.9617 25.2223ZM26.6435 19.097L28.6321 27.0799L34.6272 21.3673L26.6435 19.097ZM36.7099 19.3828L42.6789 13.695L34.7285 11.4276L36.7099 19.3828ZM31.7906 10.5897L23.9685 8.35881L25.9205 16.1947L31.7906 10.5897ZM24.2033 16.5593L22.2662 8.78289L16.4297 14.3487L24.2033 16.5593ZM15.201 13.1068L21.0521 7.52703L13.2576 5.30404L15.201 13.1068ZM10.3161 4.46512L2.35557 2.19477L4.34373 10.1678L10.3161 4.46512ZM5.03257 12.9303L7.02162 20.9069L13.0079 15.1982L5.03257 12.9303ZM14.2293 16.4471L8.23752 22.1611L16.2199 24.4397L14.2293 16.4471ZM17.8789 23.8411L23.7464 18.2384L15.9298 16.0157L17.8789 23.8411ZM13.4981 13.5285L11.549 5.70302L5.68143 11.3057L13.4981 13.5285ZM27.1532 17.4328L34.9698 19.6556L33.0208 11.8302L27.1532 17.4328Z" fill="#4B4E59"/>
</svg>
