<svg width="45" height="45" viewBox="0 0 45 45" fill="none" xmlns="http://www.w3.org/2000/svg">
<g clip-path="url(#clip0_228_11)">
<path d="M38.684 24.9947C37.1156 25.0022 35.7569 25.3802 34.6171 25.9417C34.1997 25.1107 33.7786 24.3789 33.7075 23.8343C33.6252 23.1999 33.5297 22.8199 33.6289 22.0638C33.7281 21.3077 34.166 20.2372 34.1604 20.1567C34.1548 20.0762 34.0631 19.6907 33.1573 19.6851C32.2514 19.6795 31.4785 19.8591 31.3868 20.0987C31.2951 20.3382 31.121 20.8754 31.0125 21.4368C30.8534 22.2566 29.2064 25.1837 28.2706 26.7146C27.9637 26.1176 27.7036 25.5898 27.6493 25.1743C27.5669 24.5399 27.4715 24.16 27.5707 23.4039C27.6699 22.6477 28.1078 21.5772 28.1022 21.4967C28.0966 21.4163 28.0049 21.0307 27.099 21.0251C26.1932 21.0195 25.4203 21.1992 25.3285 21.4387C25.2368 21.6783 25.1395 22.236 24.9542 22.7769C24.769 23.3178 22.5774 28.1988 22.0047 29.464C21.7127 30.1078 21.4582 30.6262 21.2785 30.9799L21.2766 30.978C21.2766 30.978 21.2654 31.0024 21.2467 31.0417C21.0932 31.343 21.0015 31.5096 21.0015 31.5096C21.0015 31.5096 21.0034 31.5114 21.0034 31.5152C20.8817 31.736 20.7507 31.9419 20.6852 31.9419C20.6403 31.9419 20.5486 31.3542 20.7058 30.5457C21.0315 28.852 21.8156 26.2112 21.8063 26.1214C21.8025 26.0746 21.9523 25.6142 21.2953 25.3746C20.6571 25.1407 20.4288 25.5299 20.3708 25.5318C20.3146 25.5337 20.2716 25.6703 20.2716 25.6703C20.2716 25.6703 20.9828 22.7001 18.9147 22.7001C17.6215 22.7001 15.8304 24.115 14.947 25.3971C14.3893 25.7003 13.1971 26.3516 11.9338 27.0459C11.4472 27.3135 10.9531 27.5849 10.4815 27.8451C10.4497 27.8095 10.4179 27.7739 10.3842 27.7384C7.87628 25.0621 3.23857 23.1699 3.43508 19.5728C3.5062 18.2646 3.96099 14.8209 12.3437 10.6436C19.2104 7.22238 24.7091 8.16378 25.6579 10.2506C27.0148 13.2319 22.7196 18.7736 15.589 19.5728C12.8715 19.8778 11.4416 18.8242 11.086 18.433C10.7117 18.0194 10.6555 18.0007 10.5152 18.0793C10.2868 18.2047 10.431 18.5696 10.5152 18.7867C10.7285 19.3407 11.6026 20.3233 13.0923 20.8117C14.4024 21.2422 17.5934 21.478 21.4507 19.9864C25.7721 18.3151 29.1465 13.6661 28.1546 9.77893C27.1458 5.8262 20.5935 4.52734 14.3893 6.73016C10.7023 8.03464 6.70656 10.0933 3.83372 12.7809C0.418132 15.9756 -0.128362 18.7587 0.0962247 19.9209C0.893508 24.0495 6.58491 26.739 8.86447 28.7322C8.75217 28.7939 8.64737 28.852 8.55005 28.9062C7.40652 29.4714 3.06826 31.7416 1.98275 34.141C0.751269 36.8622 2.17927 38.8142 3.12253 39.0781C6.04965 39.8923 9.05349 38.4268 10.6668 36.02C12.2801 33.6132 12.0835 30.4783 11.3424 29.0485C11.333 29.0316 11.3237 29.0129 11.3143 28.9961C11.61 28.822 11.9095 28.6442 12.2089 28.4683C12.791 28.1277 13.3618 27.8076 13.8559 27.5381C13.5789 28.298 13.3749 29.2075 13.2701 30.5233C13.1485 32.0654 13.7829 34.0624 14.6101 34.8484C14.9751 35.1947 15.413 35.2021 15.6919 35.2021C16.6558 35.2021 17.0956 34.4011 17.5803 33.4522C18.1736 32.2881 18.7014 30.935 18.7014 30.935C18.7014 30.935 18.0407 34.5939 19.843 34.5939C20.4999 34.5939 21.1606 33.7423 21.4544 33.3081C21.4544 33.3137 21.4563 33.3156 21.4563 33.3156C21.4563 33.3156 21.4731 33.2875 21.5068 33.2314C21.5742 33.1266 21.6135 33.0611 21.6135 33.0611C21.6135 33.0611 21.6154 33.0536 21.6172 33.0424C21.8811 32.5838 22.4669 31.5395 23.3447 29.8158C24.4789 27.5887 25.5662 24.8 25.5662 24.8C25.5662 24.8 25.6673 25.4813 25.9986 26.6098C26.1932 27.2724 26.6087 28.006 26.9343 28.7097C26.6705 29.0747 26.5095 29.2843 26.5095 29.2843C26.5095 29.2843 26.5114 29.288 26.5132 29.2955C26.3036 29.5744 26.0678 29.8757 25.8208 30.1695C24.9262 31.2363 23.8594 32.4528 23.7171 32.8047C23.5487 33.2183 23.588 33.5234 23.9136 33.7685C24.1513 33.9482 24.5743 33.9744 25.016 33.9463C25.8208 33.8921 26.386 33.6918 26.6667 33.572C27.1028 33.4185 27.61 33.1752 28.0853 32.8253C28.9631 32.1796 29.4928 31.255 29.4422 30.0329C29.4142 29.3591 29.1989 28.691 28.9275 28.0603C29.008 27.9461 29.0866 27.8301 29.1671 27.7122C30.5521 25.689 31.6263 23.4637 31.6263 23.4637C31.6263 23.4637 31.7274 24.145 32.0587 25.2735C32.2271 25.8444 32.5565 26.4676 32.8559 27.0777C31.5533 28.1351 30.7467 29.3648 30.466 30.1714C29.9475 31.663 30.3537 32.3387 31.1154 32.4921C31.4598 32.5614 31.9482 32.4042 32.3132 32.2488C32.7699 32.0972 33.3163 31.8464 33.8292 31.4703C34.7069 30.8246 35.551 29.9206 35.5005 28.6966C35.478 28.1389 35.3264 27.5868 35.1205 27.0553C36.2247 26.5949 37.6527 26.3403 39.4719 26.5518C43.376 27.0085 44.1414 29.4452 43.9955 30.4652C43.8495 31.4852 43.0297 32.0467 42.7565 32.2151C42.4832 32.3836 42.399 32.4435 42.4215 32.5689C42.4552 32.7523 42.5806 32.7448 42.8145 32.7055C43.1364 32.6512 44.8639 31.8764 44.9387 29.9917C45.0323 27.598 42.7415 24.9722 38.684 24.9947ZM8.59122 35.1385C7.29797 36.5497 5.49192 37.0831 4.7171 36.6339C3.88051 36.1491 4.21178 34.0717 5.79886 32.5745C6.76645 31.663 8.01478 30.8227 8.84388 30.3043C9.03291 30.1901 9.3099 30.0235 9.64678 29.8233C9.70292 29.7915 9.73474 29.7746 9.73474 29.7746L9.73287 29.7728C9.79837 29.7335 9.86388 29.6942 9.93312 29.653C10.5096 31.7828 9.9481 33.6581 8.59122 35.1385ZM18.0126 28.734C17.5616 29.8326 16.6202 32.6419 16.0456 32.4903C15.5534 32.3611 15.254 30.2257 15.9464 28.1239C16.2964 27.0665 17.0413 25.8013 17.4811 25.311C18.1867 24.5212 18.9634 24.2629 19.1524 24.5829C19.3938 24.9928 18.2952 28.0472 18.0126 28.734ZM25.7946 32.4491C25.6037 32.5483 25.4277 32.6119 25.3473 32.5632C25.2874 32.5277 25.4259 32.3967 25.4259 32.3967C25.4259 32.3967 26.3991 31.3486 26.7827 30.8732C27.0055 30.5962 27.2637 30.2668 27.5463 29.8982C27.5482 29.9356 27.5501 29.9711 27.5501 30.0067C27.5482 31.2606 26.3354 32.1085 25.7946 32.4491ZM31.791 31.081C31.6488 30.9799 31.6731 30.6524 32.141 29.6324C32.3244 29.2319 32.7437 28.5581 33.4736 27.9124C33.5578 28.1782 33.6102 28.4309 33.6083 28.6685C33.599 30.2481 32.4723 30.8377 31.791 31.081Z" fill="#4B4E59"/>
</g>
<defs>
<clipPath id="clip0_228_11">
<rect width="44.9173" height="44.9173" fill="white" transform="translate(0.0231934)"/>
</clipPath>
</defs>
</svg>
