<svg width="44" height="47" viewBox="0 0 44 47" fill="none" xmlns="http://www.w3.org/2000/svg">
<g clip-path="url(#clip0_228_4)">
<path d="M21.278 46.4474C20.6393 46.4474 20.0062 46.2901 19.4465 45.9859L13.6159 42.7312C12.7446 42.2718 13.1697 42.1092 13.4568 42.0158C14.6184 41.633 14.8532 41.5459 16.0928 40.882C16.223 40.8117 16.3932 40.8369 16.5267 40.9114L21.0065 43.4172C21.1679 43.5 21.3982 43.5 21.5473 43.4172L39.0136 33.9132C39.1749 33.8261 39.2806 33.6499 39.2806 33.4685V14.47C39.2806 14.2801 39.176 14.1113 39.0103 14.0169L21.5518 4.52023C21.3904 4.43003 21.1757 4.43003 21.0143 4.52023L3.55805 14.0158C3.38892 14.106 3.28098 14.2833 3.28098 14.4647V33.4643C3.28098 33.6457 3.38558 33.8188 3.55249 33.9048L8.33605 36.5092C10.9331 37.7332 12.5199 36.291 12.5199 34.8404V16.0895C12.5199 15.822 12.7424 15.6154 13.0273 15.6154H15.2393C15.5153 15.6154 15.7423 15.8209 15.7423 16.0895V34.8498C15.7423 38.114 13.854 39.9894 10.5704 39.9894C9.56003 39.9894 8.76444 39.9894 6.54346 38.9594L1.9613 36.4704C0.82856 35.8515 0.128662 34.6967 0.128662 33.4653V14.4658C0.128662 13.2291 0.82856 12.0754 1.96019 11.4649L19.4454 1.95675C20.5514 1.36728 22.0202 1.36728 23.1185 1.95675L40.5814 11.4691C41.7075 12.0827 42.4118 13.2333 42.4118 14.47V33.4695C42.4118 34.702 41.7075 35.8515 40.5803 36.4704L23.1173 45.9775C22.5577 46.2827 21.9234 46.439 21.2769 46.439" fill="#4B4E59"/>
<path d="M26.6736 33.3552C19.0315 33.3552 17.4292 30.048 17.4292 27.2748C17.4292 27.0115 17.6551 26.8007 17.9355 26.8007H20.1921C20.4413 26.8007 20.6516 26.9717 20.6906 27.2035C21.0311 29.3705 22.0459 30.4634 26.667 30.4634C30.3478 30.4634 31.9134 29.6799 31.9134 27.8391C31.9134 26.7797 31.4672 25.9931 25.749 25.4655C20.9654 25.0207 18.01 24.0274 18.01 20.4214C18.01 17.0995 20.9832 15.1213 25.9626 15.1213C31.5551 15.1213 34.3269 16.9516 34.6763 20.8829C34.6896 21.0192 34.6373 21.1503 34.5405 21.25C34.4448 21.3444 34.3091 21.4021 34.1689 21.4021H31.9001C31.6642 21.4021 31.4583 21.2458 31.4105 21.0308C30.8641 18.7515 29.5433 18.0226 25.9537 18.0226C21.9357 18.0226 21.4684 19.341 21.4684 20.3301C21.4684 21.529 22.0191 21.8793 27.4403 22.5559C32.8091 23.2271 35.3584 24.1753 35.3584 27.7321C35.3584 31.3172 32.1838 33.3741 26.6492 33.3741" fill="#4B4E59"/>
</g>
<defs>
<clipPath id="clip0_228_4">
<rect width="42.9644" height="45.4917" fill="white" transform="translate(0.128662 0.905762)"/>
</clipPath>
</defs>
</svg>
