<svg width="43" height="43" viewBox="0 0 43 43" fill="none" xmlns="http://www.w3.org/2000/svg">
<path d="M20.9406 0.749512C13.1257 0.749512 11.5079 4.78506 11.5079 7.12216V11.5297H20.4914V12.428H7.10043C4.13519 12.428 0.727783 14.7651 0.727783 21.4115C0.727783 28.0579 4.13519 30.395 7.10043 30.395H12.4063V25.0049C12.4063 23.0292 14.024 21.4115 15.9997 21.4115H26.7798C28.3063 21.4115 29.4749 20.2429 29.4749 18.7165V7.12216C29.4749 3.97795 26.5096 0.749512 20.9406 0.749512ZM16.898 5.24125C17.8876 5.24125 18.6947 6.04836 18.6947 7.03794C18.6947 8.02753 17.8876 8.83463 16.898 8.83463C15.9084 8.83463 15.1013 8.02753 15.1013 7.03794C15.1013 6.04836 15.9084 5.24125 16.898 5.24125ZM30.3732 12.428V18.7165C30.3732 20.6921 28.7555 22.3098 26.7798 22.3098H15.9997C14.4732 22.3098 13.3046 23.4784 13.3046 25.0049V35.7008C13.3046 38.845 16.2699 42.0735 21.8389 42.0735C29.6539 42.0735 31.2716 38.0379 31.2716 35.7008V31.2933H22.2881V30.395H35.6791C38.6443 30.395 42.0517 28.0579 42.0517 21.4115C42.0517 14.7651 38.6443 12.428 35.6791 12.428H30.3732ZM25.8815 33.9883C26.8711 33.9883 27.6782 34.7955 27.6782 35.785C27.6782 36.7746 26.8711 37.5817 25.8815 37.5817C24.8919 37.5817 24.0848 36.7746 24.0848 35.785C24.0848 34.7955 24.8919 33.9883 25.8815 33.9883Z" fill="#4B4E59"/>
</svg>
