<svg width="48" height="47" viewBox="0 0 48 47" fill="none" xmlns="http://www.w3.org/2000/svg">
<path fill-rule="evenodd" clip-rule="evenodd" d="M33.3438 3.73493C32.613 3.71035 31.8479 3.83778 31.0809 4.08646C29.5468 4.58381 27.9393 5.55304 26.2895 6.89501C25.643 7.42093 24.9906 8.02211 24.336 8.65997C23.6958 8.03831 23.0568 7.45326 22.4245 6.93895C20.7761 5.59806 19.1729 4.62846 17.6423 4.13223C16.1117 3.636 14.5887 3.62062 13.3379 4.34278C12.0871 5.06493 11.3391 6.39058 11.0036 7.96424C10.668 9.5379 10.705 11.4119 11.042 13.5099C11.1591 14.2387 11.3261 15.0032 11.5162 15.7821C10.8015 15.9987 10.1074 16.2264 9.46381 16.4778C7.52141 17.2364 5.9142 18.1441 4.74382 19.2241C3.57345 20.3041 2.81775 21.6149 2.81775 23.0543C2.81775 24.4936 3.57345 25.8026 4.74382 26.8826C5.9142 27.9627 7.52141 28.8721 9.46381 29.6308C10.152 29.8996 10.8971 30.1416 11.6663 30.3704C11.3897 31.4042 11.1655 32.4074 11.0127 33.3584C10.6754 35.4581 10.6398 37.3324 10.9761 38.9096C11.3124 40.4868 12.0608 41.82 13.3178 42.5457C14.5748 43.2714 16.1046 43.2536 17.6386 42.7563C19.1727 42.2589 20.7785 41.2915 22.4282 39.9495C23.0688 39.4285 23.7168 38.8341 24.3653 38.2029C25.0172 38.8379 25.6677 39.4351 26.3115 39.9587C27.9599 41.2996 29.5649 42.2674 31.0955 42.7636C32.6261 43.2598 34.1491 43.2752 35.3999 42.553C36.6507 41.8309 37.3969 40.5052 37.7324 38.9316C38.068 37.3579 38.031 35.4857 37.694 33.3877C37.5408 32.4342 37.3165 31.4276 37.0385 30.3906C37.8332 30.1562 38.6018 29.9076 39.3107 29.6308C41.2531 28.8721 42.8603 27.9627 44.0306 26.8826C45.201 25.8026 45.9567 24.4936 45.9567 23.0543C45.9567 21.6149 45.201 20.3041 44.0306 19.2241C42.8603 18.1441 41.2531 17.2364 39.3107 16.4778C38.6578 16.2228 37.9531 15.9921 37.2271 15.7729C37.4188 14.9893 37.589 14.2193 37.7068 13.4861C38.0441 11.3864 38.0798 9.51035 37.7434 7.93312C37.4071 6.35589 36.6569 5.02457 35.3999 4.29884C34.7714 3.93598 34.0747 3.75951 33.3438 3.73493ZM33.2578 5.6427C33.7164 5.65524 34.1077 5.76438 34.4424 5.95761C35.1117 6.34406 35.6065 7.0962 35.8705 8.33408C36.1344 9.57195 36.1253 11.2444 35.8137 13.1841C35.707 13.8481 35.5521 14.5519 35.3761 15.2731C33.4586 14.8116 31.3575 14.4692 29.1182 14.2679C27.994 12.7105 26.8389 11.2917 25.6743 10.0331C26.2903 9.43181 26.9024 8.86943 27.4997 8.38351C29.0237 7.14386 30.4664 6.30035 31.6704 5.91C32.2724 5.71483 32.7992 5.63016 33.2578 5.6427ZM15.4691 5.64819C15.9304 5.63531 16.4582 5.71976 17.0619 5.9155C18.2694 6.30697 19.7147 7.15011 21.24 8.39083C21.8253 8.867 22.4236 9.41868 23.0269 10.0057C21.8537 11.2746 20.689 12.7057 19.5574 14.2771C17.3275 14.482 15.235 14.8263 13.3269 15.2896C13.1523 14.5724 12.9973 13.8722 12.8912 13.2115C12.5793 11.2702 12.5716 9.59749 12.8363 8.35605C13.101 7.1146 13.5998 6.35679 14.2753 5.96676C14.6131 5.77175 15.0078 5.66107 15.4691 5.64819ZM24.3653 11.3825C25.1289 12.2135 25.8927 13.1228 26.6502 14.1013C25.9059 14.0703 25.1524 14.0519 24.3872 14.0519C23.6068 14.0519 22.839 14.0709 22.0803 14.1031C22.838 13.1239 23.6015 12.2141 24.3653 11.3825ZM24.3872 15.945C25.662 15.945 26.9045 15.9974 28.1131 16.086C28.9446 17.2804 29.7573 18.5475 30.5316 19.8887C31.212 21.0672 31.8277 22.2438 32.3881 23.4058C31.8218 24.5832 31.1958 25.7758 30.506 26.9705C29.8988 28.0222 29.2647 29.021 28.6202 29.9841C27.255 30.0982 25.8405 30.1617 24.3872 30.1617C22.899 30.1617 21.4526 30.0945 20.0572 29.975C19.4234 29.0257 18.8 28.042 18.2026 27.0071C17.5143 25.8151 16.8913 24.6247 16.3259 23.4497C16.8937 22.2681 17.5195 21.0711 18.2117 19.8722C18.982 18.5381 19.7923 17.2783 20.6193 16.0896C21.8409 15.9991 23.0978 15.945 24.3872 15.945ZM30.5261 16.3203C32.0714 16.5131 33.5223 16.7808 34.8726 17.1021C34.472 18.4156 33.9784 19.7875 33.3805 21.2033C32.9922 20.4548 32.5901 19.7038 32.1556 18.9513C31.6291 18.0393 31.0807 17.1699 30.5261 16.3203ZM18.1476 16.335C17.6048 17.1686 17.0706 18.0212 16.5548 18.9147C16.1147 19.6769 15.7043 20.438 15.3116 21.1959C14.7188 19.7887 14.2282 18.4245 13.8304 17.1186C15.1707 16.7967 16.6131 16.53 18.1476 16.335ZM36.7273 17.6001C37.3918 17.8012 38.0336 18.011 38.6222 18.2409C40.4128 18.9403 41.8292 19.7684 42.7472 20.6156C43.6652 21.4627 44.0636 22.2706 44.0636 23.0543C44.0636 23.838 43.6652 24.6459 42.7472 25.493C41.8292 26.3401 40.4128 27.1683 38.6222 27.8676C37.9681 28.1231 37.2493 28.3548 36.5021 28.5744C35.9691 26.9257 35.2887 25.2056 34.479 23.4497C35.41 21.4338 36.1621 19.4683 36.7273 17.6001ZM12.016 17.6093C12.5748 19.4588 13.3172 21.4048 14.2351 23.4003C13.42 25.1664 12.7363 26.8962 12.201 28.5542C11.4801 28.3405 10.7857 28.115 10.1522 27.8676C8.36163 27.1683 6.94525 26.3401 6.02726 25.493C5.10928 24.6459 4.71087 23.838 4.71087 23.0543C4.71087 22.2706 5.10928 21.4627 6.02726 20.6156C6.94525 19.7684 8.36163 18.9403 10.1522 18.2409C10.7318 18.0145 11.3628 17.8077 12.016 17.6093ZM24.3872 18.7481C21.8098 18.7481 19.7002 20.8576 19.7002 23.4351C19.7002 26.0126 21.8098 28.1221 24.3872 28.1221C26.9647 28.1221 29.0743 26.0126 29.0743 23.4351C29.0743 20.8576 26.9647 18.7481 24.3872 18.7481ZM15.3336 25.6523C15.7279 26.414 16.1381 27.1784 16.5804 27.9445C16.9265 28.5439 17.2799 29.1274 17.6386 29.7003C16.3797 29.5258 15.1831 29.3048 14.0593 29.0431C14.4167 27.9485 14.8442 26.8124 15.3336 25.6523ZM33.4043 25.6523C33.8956 26.8151 34.3234 27.9531 34.6822 29.0504C33.5549 29.3118 32.3545 29.532 31.0919 29.7058C31.4553 29.1259 31.8143 28.5351 32.1648 27.9281C32.6038 27.1676 33.0124 26.4085 33.4043 25.6523ZM13.5192 30.8629C15.2157 31.2648 17.0546 31.5736 19.0045 31.7747C20.3061 33.6574 21.6622 35.3491 23.0269 36.8279C22.4166 37.4229 21.8118 37.9814 21.2198 38.4629C19.6959 39.7025 18.2513 40.5442 17.0473 40.9346C15.8433 41.3249 14.9447 41.2734 14.2753 40.887C13.606 40.5005 13.113 39.7484 12.8491 38.5105C12.5851 37.2726 12.5924 35.6019 12.904 33.6623C13.0454 32.7824 13.2566 31.8402 13.5192 30.8629ZM35.2242 30.8703C35.4889 31.8535 35.7008 32.7992 35.843 33.6843C36.1548 35.6256 36.1626 37.2983 35.8979 38.5398C35.6332 39.7812 35.1381 40.5409 34.4625 40.9309C33.787 41.3209 32.8797 41.3718 31.6723 40.9803C30.4648 40.5889 29.0195 39.7457 27.4942 38.505C26.898 38.02 26.289 37.4571 25.6743 36.8572C27.0482 35.3726 28.4138 33.6723 29.7242 31.7784C31.679 31.5786 33.523 31.2717 35.2242 30.8703ZM21.4505 31.967C22.413 32.0194 23.3882 32.0548 24.3872 32.0548C25.3532 32.0548 26.2968 32.0215 27.2287 31.9724C26.2761 33.2578 25.305 34.4263 24.3378 35.4786C23.3712 34.4241 22.4019 33.2535 21.4505 31.967Z" fill="#4B4E59"/>
</svg>
