<svg width="42" height="40" viewBox="0 0 42 40" fill="none" xmlns="http://www.w3.org/2000/svg">
<path d="M28.7108 27.532C30.2399 27.3738 31.4 26.0556 31.3472 24.4737C31.2945 22.8919 29.9763 21.6264 28.3944 21.6264H28.289C26.6544 21.6791 25.3889 23.0501 25.4416 24.6847C25.4943 25.4756 25.8107 26.1611 26.2852 26.6356C24.4925 30.1685 21.7505 32.7522 17.6377 34.9141C14.843 36.3905 11.9429 36.9178 9.04284 36.5487C6.67003 36.2323 4.82451 35.1777 3.66447 33.4377C1.97714 30.854 1.81895 28.0593 3.24264 25.2647C4.24449 23.261 5.82636 21.7846 6.82822 21.0464C6.6173 20.3609 6.30093 19.2008 6.14274 18.3572C-1.50298 23.8937 -0.712041 31.3813 1.60804 34.9141C3.3481 37.5506 6.88095 39.1852 10.7829 39.1852C11.8375 39.1852 12.8921 39.0797 13.9466 38.8161C20.696 37.4978 25.8107 33.4904 28.7108 27.532V27.532Z" fill="#4B4E59"/>
<path d="M37.9908 20.9937C33.9834 16.3008 28.0778 13.7171 21.3285 13.7171H20.4848C20.0102 12.768 19.0084 12.1353 17.9011 12.1353H17.7956C16.161 12.188 14.8955 13.5589 14.9482 15.1935C15.001 16.7754 16.3192 18.0409 17.9011 18.0409H18.0065C19.1666 17.9882 20.1684 17.25 20.5903 16.2481H21.5394C25.5468 16.2481 29.3433 17.4082 32.7707 19.6755C35.4071 21.4156 37.3054 23.6829 38.3599 26.4248C39.2563 28.6394 39.2036 30.8013 38.2545 32.6469C36.7781 35.4415 34.2998 36.9706 31.0306 36.9706C28.9214 36.9706 26.9177 36.3379 25.8632 35.8633C25.2831 36.3906 24.2286 37.2343 23.4904 37.7616C25.7577 38.8162 28.0778 39.3962 30.2924 39.3962C35.3544 39.3962 39.0982 36.6015 40.5218 33.8069C42.051 30.7486 41.9455 25.4757 37.9908 20.9937Z" fill="#4B4E59"/>
<path d="M11.2048 28.4285C11.2576 30.0104 12.5758 31.2759 14.1577 31.2759H14.2631C15.8977 31.2232 17.1632 29.8522 17.1105 28.2176C17.0577 26.6357 15.7395 25.3703 14.1577 25.3703H14.0522C13.9467 25.3703 13.7885 25.3703 13.6831 25.423C11.5212 21.8374 10.6248 17.9355 10.9412 13.7171C11.1521 10.5534 12.2067 7.81148 14.0522 5.54413C15.5813 3.59315 18.5342 2.64403 20.5379 2.5913C26.1271 2.48584 28.5 9.44608 28.6581 12.2407C29.3436 12.3989 30.5037 12.768 31.2946 13.0317C30.6618 4.48954 25.3889 0.0603027 20.327 0.0603027C15.5813 0.0603027 11.2048 3.48769 9.46476 8.54968C7.03923 15.299 8.6211 21.7847 11.5739 26.8994C11.3103 27.2685 11.1521 27.8485 11.2048 28.4285V28.4285Z" fill="#4B4E59"/>
</svg>
