<svg width="278" height="55" viewBox="0 0 278 55" fill="none" xmlns="http://www.w3.org/2000/svg">
<g clip-path="url(#clip0_229_41)">
<path d="M250.996 55.0001C250.273 55.0001 249.553 54.8076 248.921 54.434L242.315 50.4534C241.33 49.892 241.811 49.6926 242.135 49.5757C243.451 49.1105 243.717 49.0028 245.123 48.1915C245.269 48.1068 245.463 48.1388 245.614 48.2305L250.69 51.299C250.874 51.4022 251.133 51.4022 251.302 51.299L271.09 39.6665C271.275 39.5588 271.392 39.3434 271.392 39.1211V15.8607C271.392 15.6338 271.273 15.4207 271.084 15.3061L251.304 3.68279C251.122 3.57508 250.879 3.57508 250.694 3.68279L230.919 15.3084C230.728 15.4207 230.606 15.6407 230.606 15.8607V39.1211C230.606 39.3434 230.728 39.5543 230.919 39.6597L236.339 42.8497C239.28 44.3484 241.082 42.5838 241.082 40.8101V17.8453C241.082 17.5199 241.339 17.2655 241.658 17.2655H244.167C244.48 17.2655 244.741 17.5222 244.741 17.8453V40.8101C244.741 44.809 242.603 47.1007 238.882 47.1007C237.739 47.1007 236.836 47.1007 234.323 45.838L229.13 42.797C227.848 42.043 227.056 40.6313 227.056 39.1211V15.8607C227.056 14.3505 227.85 12.9388 229.13 12.1872L248.919 0.540918C250.172 -0.180957 251.835 -0.180957 253.077 0.540918L272.863 12.1872C274.146 12.9411 274.942 14.3505 274.942 15.8607V39.1211C274.942 40.6313 274.146 42.0384 272.863 42.797L253.077 54.434C252.447 54.8076 251.729 55.0001 250.996 55.0001ZM266.973 32.0674C266.973 27.7132 264.084 26.5536 258.002 25.7355C251.857 24.9082 251.232 24.4797 251.232 23.0153C251.232 21.8053 251.761 20.1897 256.312 20.1897C260.378 20.1897 261.877 21.0811 262.493 23.8724C262.547 24.1359 262.783 24.3284 263.049 24.3284H265.616C265.776 24.3284 265.927 24.2574 266.035 24.1428C266.143 24.019 266.201 23.8609 266.185 23.6936C265.787 18.8857 262.651 16.6445 256.312 16.6445C250.669 16.6445 247.303 19.069 247.303 23.1368C247.303 27.5482 250.651 28.7674 256.067 29.3128C262.547 29.959 263.049 30.9238 263.049 32.2209C263.049 34.4736 261.274 35.4338 257.104 35.4338C251.869 35.4338 250.717 34.0955 250.33 31.4418C250.285 31.1576 250.046 30.949 249.76 30.949H247.202C246.885 30.949 246.631 31.2057 246.631 31.5288C246.631 34.9251 248.444 38.9722 257.104 38.9722C263.377 38.9745 266.973 36.4605 266.973 32.0674Z" fill="#4B4E59"/>
</g>
<g clip-path="url(#clip1_229_41)">
<path d="M171.017 28.009C171.017 29.343 170.488 30.6223 169.545 31.5657C168.602 32.5091 167.323 33.0394 165.989 33.04C164.654 33.04 163.375 32.51 162.431 31.5665C161.488 30.623 160.958 29.3433 160.958 28.009C160.958 26.6751 161.487 25.3958 162.431 24.4524C163.374 23.509 164.653 22.9786 165.987 22.978C167.321 22.978 168.6 23.5081 169.544 24.4516C170.487 25.3951 171.017 26.6747 171.017 28.009V28.009ZM176.976 3.95654C173.947 3.95654 169.985 6.11654 165.977 9.85604C161.972 6.13679 158.008 4.00154 154.982 4.00154C154.059 4.00154 153.22 4.21079 152.493 4.62704C149.4 6.41129 148.707 11.971 150.304 18.9483C143.455 21.0633 139 24.445 139 28.009C139 31.5865 143.478 34.9773 150.347 37.0765C148.763 44.0808 149.469 49.6495 152.57 51.4315C153.29 51.8523 154.122 52.0503 155.049 52.0503C158.075 52.0503 162.04 49.8903 166.047 46.1463C170.052 49.8678 174.017 52.003 177.043 52.003C177.966 52.003 178.805 51.8005 179.531 51.3843C182.623 49.6023 183.318 44.0425 181.721 37.063C188.545 34.966 193 31.5775 193 28.009C193 24.4315 188.523 21.0408 181.653 18.937C183.237 11.9395 182.531 6.36629 179.43 4.58204C178.715 4.16804 177.882 3.95879 176.973 3.95654H176.976ZM176.964 6.40904V6.42254C177.47 6.42254 177.878 6.52154 178.22 6.70829C179.718 7.56779 180.368 10.837 179.862 15.0423C179.741 16.0773 179.543 17.1685 179.3 18.2823C177.14 17.7513 174.786 17.344 172.309 17.0808C170.824 15.0445 169.283 13.195 167.73 11.575C171.312 8.24504 174.676 6.41804 176.967 6.41129L176.964 6.40904ZM154.982 6.45404C157.259 6.45404 160.638 8.27204 164.229 11.584C162.686 13.204 161.147 15.0423 159.684 17.0785C157.193 17.3418 154.838 17.749 152.68 18.289C152.428 17.1865 152.241 16.12 152.109 15.094C151.591 10.891 152.23 7.62404 153.715 6.75329C154.142 6.55079 154.615 6.46754 154.982 6.45629V6.45404ZM165.966 13.3165C166.99 14.3695 168.014 15.5485 169.026 16.8355C168.036 16.7905 167.024 16.759 166 16.759C164.965 16.759 163.941 16.7815 162.94 16.8355C163.93 15.5485 164.954 14.3695 165.966 13.3143V13.3165ZM166 19.225C167.665 19.225 169.323 19.3015 170.954 19.4343C171.868 20.7438 172.759 22.141 173.616 23.6193C174.453 25.0593 175.214 26.5218 175.907 27.9978C175.214 29.4715 174.453 30.9453 173.628 32.3853C172.773 33.8703 171.888 35.2833 170.973 36.5928C169.335 36.7345 167.674 36.8133 166 36.8133C164.335 36.8133 162.677 36.7345 161.046 36.604C160.132 35.2945 159.241 33.895 158.384 32.419C157.547 30.979 156.786 29.5165 156.093 28.0405C156.775 26.5623 157.547 25.0863 158.372 23.644C159.227 22.159 160.112 20.7505 161.027 19.441C162.665 19.297 164.326 19.2205 166 19.2205V19.225ZM157.821 19.7965C157.281 20.6448 156.741 21.5133 156.237 22.4065C155.731 23.284 155.259 24.166 154.809 25.048C154.212 23.572 153.706 22.1005 153.287 20.6673C154.727 20.3298 156.246 20.0305 157.821 19.7988V19.7965ZM174.156 19.7965C175.72 20.0283 177.228 20.314 178.67 20.6673C178.265 22.0893 177.759 23.5518 177.185 25.0165C176.735 24.139 176.262 23.2548 175.745 22.375C175.238 21.493 174.699 20.6335 174.159 19.7965H174.156ZM181.048 21.3153C182.137 21.6528 183.172 22.0285 184.142 22.4358C188.039 24.1008 190.559 26.2788 190.559 28.0068C190.548 29.7348 188.028 31.9218 184.131 33.5755C183.186 33.9805 182.15 34.345 181.082 34.6848C180.452 32.5293 179.628 30.2838 178.607 27.9798C179.619 25.6915 180.429 23.4573 181.048 21.3108V21.3153ZM150.909 21.3243C151.535 23.4843 152.361 25.7275 153.384 28.0293C152.372 30.3175 151.557 32.5518 150.941 34.6983C149.852 34.3608 148.817 33.9828 147.858 33.5733C143.961 31.915 141.441 29.7348 141.441 28.0068C141.441 26.2788 143.961 24.0873 147.858 22.4358C148.803 22.0308 149.838 21.6663 150.909 21.3243V21.3243ZM177.185 30.9543C177.781 32.4325 178.287 33.9063 178.706 35.3373C177.266 35.6905 175.745 35.9898 174.17 36.2148C174.71 35.371 175.25 34.5003 175.756 33.6093C176.262 32.7318 176.735 31.8363 177.187 30.9543H177.185ZM154.809 30.9993C155.259 31.8813 155.731 32.761 156.248 33.643C156.766 34.5205 157.295 35.38 157.835 36.2148C156.271 35.9853 154.763 35.6973 153.321 35.3463C153.726 33.9288 154.235 32.4618 154.806 30.997L154.809 30.9993ZM179.32 37.72C179.572 38.8293 179.77 39.898 179.891 40.9218C180.409 45.1248 179.77 48.3918 178.285 49.2648C177.954 49.4673 177.524 49.5528 177.018 49.5528C174.741 49.5528 171.362 47.737 167.771 44.4228C169.314 42.8028 170.853 40.9668 172.316 38.9328C174.807 38.6673 177.162 38.2578 179.32 37.7178V37.72ZM152.703 37.7425C154.863 38.269 157.216 38.6763 159.693 38.9395C161.178 40.9758 162.72 42.8253 164.272 44.443C160.683 47.7798 157.315 49.6068 155.025 49.6068C154.53 49.5955 154.111 49.4943 153.78 49.3098C152.282 48.4548 151.632 45.1833 152.138 40.978C152.259 39.943 152.457 38.854 152.7 37.7425H152.703ZM162.962 39.1825C163.952 39.2275 164.965 39.259 165.989 39.259C167.024 39.259 168.047 39.2365 169.049 39.1825C168.059 40.4695 167.035 41.6463 166.023 42.7038C164.999 41.6463 163.975 40.4695 162.962 39.1825Z" fill="#4B4E59"/>
</g>
<path d="M15.9745 8.56402C13.8815 6.07817 12.0791 3.55349 11.7109 3.02913C11.6722 2.99029 11.614 2.99029 11.5753 3.02913C11.207 3.55349 9.40471 6.07817 7.31166 8.56402C-10.6536 31.4998 10.1412 46.9781 10.1412 46.9781L10.3156 47.0947C10.4706 49.4833 10.8582 52.9209 10.8582 52.9209H11.6334H12.4086C12.4086 52.9209 12.7962 49.5027 12.9513 47.0947L13.1257 46.9587C13.145 46.9781 33.9398 31.4998 15.9745 8.56402ZM11.6334 46.6285C11.6334 46.6285 10.7032 45.8323 10.4512 45.4246V45.3855L11.5753 20.4106C11.5753 20.333 11.6916 20.333 11.6916 20.4106L12.8156 45.3855V45.4246C12.5636 45.8323 11.6334 46.6285 11.6334 46.6285Z" fill="#4B4E59"/>
<path d="M113 44.0837C112.141 44.4066 111.193 44.4059 110.335 44.0818C109.476 43.7577 108.767 43.1326 108.342 42.3246C105.668 38.3504 102.716 34.5553 99.8779 30.6788L98.6477 29.05C95.2688 33.5454 91.8898 37.8617 88.8061 42.3409C88.4044 43.1131 87.7337 43.7139 86.9189 44.0315C86.1042 44.3492 85.2009 44.3619 84.3774 44.0674L97.0566 27.1769L85.2632 11.9152C86.1121 11.6108 87.0408 11.6067 87.8925 11.9034C88.7442 12.2001 89.4666 12.7796 89.9379 13.544C92.6772 17.5182 95.7116 21.3133 98.7297 25.3364C101.764 21.3459 104.766 17.5345 107.571 13.5929C107.975 12.8332 108.646 12.2475 109.456 11.9472C110.267 11.6469 111.16 11.6529 111.967 11.9641L107.39 17.9906C105.34 20.6781 103.322 23.3818 101.19 26.0042C101.018 26.157 100.881 26.344 100.787 26.5531C100.693 26.7622 100.644 26.9886 100.644 27.2176C100.644 27.4466 100.693 27.6731 100.787 27.8822C100.881 28.0913 101.018 28.2783 101.19 28.4311C105.11 33.5943 108.998 38.7738 113 44.0837V44.0837Z" fill="#4B4E59"/>
<path d="M54 26.9651C54.3445 25.3363 54.5577 23.561 55.0334 21.8996C57.871 11.8826 69.4348 7.71291 77.3901 13.9186C82.0484 17.5508 83.213 22.6977 82.9834 28.4962H56.7392C56.3128 38.8552 63.8416 45.1098 73.4699 41.9173C75.0317 41.3626 76.4299 40.4303 77.5381 39.2047C78.6463 37.9791 79.4298 36.4988 79.8177 34.8973C80.3262 33.2685 81.1463 32.9916 82.7045 33.464C82.4479 35.4469 81.7418 37.3462 80.6395 39.0191C79.5372 40.692 78.0673 42.095 76.3403 43.1226C73.4869 44.6721 70.2132 45.2859 66.9873 44.8764C63.7614 44.4668 60.7485 43.0548 58.3795 40.8423C56.0358 38.2256 54.6187 34.9193 54.3445 31.428C54.3445 30.8742 54.1312 30.3204 54.0164 29.7992C54.0055 28.8328 54 27.8881 54 26.9651ZM56.772 26.2647H80.5066C80.359 18.7561 75.5858 13.4299 69.2216 13.3811C62.1357 13.2833 57.0673 18.4954 56.7556 26.2322L56.772 26.2647Z" fill="#4B4E59"/>
<defs>
<clipPath id="clip0_229_41">
<rect width="54" height="55" fill="white" transform="translate(224)"/>
</clipPath>
<clipPath id="clip1_229_41">
<rect width="54" height="54" fill="white" transform="translate(139 1)"/>
</clipPath>
</defs>
</svg>
