<svg width="16" height="11" viewBox="0 0 16 11" fill="none" xmlns="http://www.w3.org/2000/svg">
<path d="M4.654 0C5.115 0 5.541 0.0350001 5.932 0.14C6.322 0.21 6.643 0.356 6.928 0.531C7.214 0.707 7.425 0.957 7.569 1.278C7.709 1.598 7.785 1.989 7.785 2.415C7.785 2.911 7.679 3.337 7.429 3.657C7.214 3.977 6.863 4.263 6.432 4.474C7.038 4.65 7.499 4.97 7.78 5.396C8.061 5.822 8.241 6.353 8.241 6.959C8.241 7.455 8.136 7.881 7.956 8.237C7.77644 8.59533 7.507 8.90095 7.174 9.124C6.854 9.339 6.463 9.514 6.037 9.62C5.6197 9.7302 5.19056 9.7893 4.759 9.796L0 9.803V0H4.654ZM4.369 3.978C4.759 3.978 5.079 3.873 5.326 3.693C5.572 3.513 5.681 3.196 5.681 2.806C5.681 2.59 5.646 2.38 5.576 2.239C5.50023 2.09609 5.3903 1.97414 5.256 1.884C5.11093 1.8049 4.95587 1.7457 4.795 1.708C4.619 1.673 4.439 1.673 4.228 1.673H2.17V3.983C2.17 3.978 4.37 3.978 4.37 3.978H4.369ZM4.474 8.171C4.689 8.171 4.9 8.136 5.08 8.101C5.256 8.066 5.436 7.995 5.576 7.885C5.716 7.775 5.826 7.67 5.932 7.495C6.002 7.319 6.072 7.104 6.072 6.854C6.072 6.358 5.932 6.002 5.646 5.752C5.361 5.537 4.97 5.432 4.509 5.432H2.17V8.166H4.475V8.171H4.474ZM11.332 8.136C11.618 8.421 12.043 8.562 12.61 8.562C13 8.562 13.356 8.456 13.642 8.276C13.927 8.061 14.102 7.85 14.172 7.636H15.912C15.626 8.487 15.2 9.093 14.634 9.484C14.068 9.839 13.391 10.05 12.574 10.05C12.0516 10.0523 11.5334 9.95561 11.047 9.765C10.6092 9.60226 10.2186 9.33359 9.91 8.983C9.58085 8.65608 9.33644 8.25378 9.198 7.811C9.023 7.35 8.948 6.854 8.948 6.283C8.948 5.752 9.018 5.251 9.198 4.79C9.378 4.33 9.624 3.938 9.945 3.583C10.265 3.263 10.656 2.977 11.082 2.801C11.557 2.61188 12.0637 2.51515 12.575 2.516C13.181 2.516 13.712 2.621 14.173 2.871C14.633 3.121 14.99 3.403 15.275 3.829C15.56 4.219 15.771 4.68 15.916 5.177C15.986 5.673 16.021 6.173 15.986 6.74H10.836C10.836 7.32 11.046 7.85 11.332 8.136V8.136ZM13.572 4.404C13.322 4.154 12.93 4.013 12.469 4.013C12.149 4.013 11.903 4.083 11.688 4.189C11.473 4.294 11.332 4.439 11.192 4.579C11.0613 4.71625 10.9743 4.88923 10.942 5.076C10.906 5.251 10.872 5.396 10.872 5.536H14.068C13.998 5.01 13.818 4.654 13.571 4.404H13.572ZM10.445 0.676H14.423V1.633H10.445V0.676V0.676Z" fill="#23252B"/>
</svg>
