<svg width="14" height="8" viewBox="0 0 14 8" fill="none" xmlns="http://www.w3.org/2000/svg">
<path fill-rule="evenodd" clip-rule="evenodd" d="M2.646 0.145978C2.69245 0.099415 2.74762 0.062472 2.80837 0.0372655C2.86911 0.0120591 2.93423 -0.000915527 3 -0.000915527C3.06577 -0.000915527 3.13089 0.0120591 3.19163 0.0372655C3.25238 0.062472 3.30755 0.099415 3.354 0.145978L7 3.79298L10.646 0.145978C10.7399 0.0520916 10.8672 -0.000653268 11 -0.000653267C11.1328 -0.000653266 11.2601 0.0520916 11.354 0.145978C11.4479 0.239865 11.5006 0.367203 11.5006 0.499978C11.5006 0.632754 11.4479 0.760092 11.354 0.853978L7.354 4.85398C7.30755 4.90054 7.25238 4.93748 7.19163 4.96269C7.13089 4.9879 7.06577 5.00087 7 5.00087C6.93423 5.00087 6.86911 4.9879 6.80837 4.96269C6.74762 4.93748 6.69245 4.90054 6.646 4.85398L2.646 0.853978C2.59944 0.807533 2.56249 0.752357 2.53729 0.691612C2.51208 0.630867 2.49911 0.565746 2.49911 0.499978C2.49911 0.434211 2.51208 0.36909 2.53729 0.308345C2.56249 0.247599 2.59944 0.192424 2.646 0.145978V0.145978ZM0 7.49998C0 7.36737 0.0526784 7.24019 0.146447 7.14642C0.240215 7.05266 0.367392 6.99998 0.5 6.99998H13.5C13.6326 6.99998 13.7598 7.05266 13.8536 7.14642C13.9473 7.24019 14 7.36737 14 7.49998C14 7.63259 13.9473 7.75976 13.8536 7.85353C13.7598 7.9473 13.6326 7.99998 13.5 7.99998H0.5C0.367392 7.99998 0.240215 7.9473 0.146447 7.85353C0.0526784 7.75976 0 7.63259 0 7.49998V7.49998Z" fill="#FCFCF9"/>
</svg>
