<svg width="73" height="75" viewBox="0 0 73 75" fill="none" xmlns="http://www.w3.org/2000/svg">
<path fill-rule="evenodd" clip-rule="evenodd" d="M51.0288 4.36523C49.9029 3.66635 48.6055 3.29634 47.282 3.2967L20.7904 3.2967C19.5344 3.29711 18.3008 3.63109 17.2146 4.26481C16.1285 4.89851 15.2282 5.80954 14.6053 6.90535L8.74124 17.2158C7.65892 19.1185 6.98753 21.229 6.77079 23.4098L5.6316 34.8777C5.50335 36.1666 5.64531 37.4682 6.0483 38.6987C6.45131 39.9291 7.10644 41.0611 7.97147 42.0216C8.8365 42.9821 9.89223 43.7497 11.0706 44.2752C12.249 44.8006 13.5238 45.0721 14.813 45.0721L16.846 45.0721C17.0405 45.327 17.2404 45.5777 17.4457 45.824C18.2559 46.8 19.7087 48.3772 21.4697 49.085C23.1888 49.7776 25.3799 49.6995 26.6904 49.5988C27.2388 50.6707 28.0914 51.5615 29.1464 52.1539C30.1837 52.7544 31.3055 53.1939 32.4735 53.4576L32.483 53.4598L32.4925 53.4617C33.6819 53.7007 35.2154 53.7216 36.4487 53.692L36.4487 64.3115C36.4487 66.4905 37.3102 68.5803 38.8436 70.1211C40.377 71.6619 42.4568 72.5275 44.6253 72.5275C46.7939 72.5275 48.8737 71.6619 50.4071 70.1211C51.9405 68.5803 52.802 66.4905 52.802 64.3115L52.8019 38.6642L57.9468 43.8339L57.9484 43.8355C59.1913 45.0775 60.8425 45.821 62.5922 45.9265C64.3419 46.0321 66.0698 45.4924 67.4516 44.4088C68.8334 43.3252 69.7742 41.7721 70.0973 40.041C70.4205 38.3099 70.1038 36.5198 69.2067 35.0066L58.7503 17.4897L53.6569 7.25381C53.0649 6.06439 52.1548 5.06416 51.0288 4.36523ZM31.0222 9.16895L47.282 9.16895C47.5198 9.16896 47.7529 9.23545 47.9553 9.36099C48.1576 9.48653 48.3212 9.66617 48.4278 9.8798L53.6204 20.3194L64.1953 38.022C64.364 38.3065 64.4237 38.6431 64.363 38.9686C64.3022 39.2943 64.1252 39.5864 63.8652 39.7902C63.6052 39.994 63.2801 40.0953 62.951 40.0752C62.6222 40.0552 62.3121 39.9153 62.0786 39.6819L62.0778 39.6811L51.9487 29.5032L51.948 29.5024C51.5398 29.0915 51.0195 28.8114 50.4528 28.6975C49.8859 28.5836 49.298 28.6413 48.7637 28.8632C48.2293 29.0852 47.7725 29.4614 47.4511 29.9443C47.1296 30.4272 46.958 30.9953 46.9578 31.5762L46.9579 64.3115C46.9579 64.9331 46.7121 65.5292 46.2747 65.9688C45.8372 66.4083 45.244 66.6552 44.6253 66.6552C44.0067 66.6552 43.4134 66.4083 42.976 65.9688C42.5386 65.5292 42.2928 64.9331 42.2928 64.3115L42.2928 37.9121C42.2928 37.1334 41.985 36.3866 41.437 35.8359C40.889 35.2853 40.1457 34.976 39.3708 34.976C38.5958 34.976 37.8526 35.2853 37.3046 35.8359C36.7566 36.3866 36.4487 37.1334 36.4487 37.9121L36.4487 47.8183C35.2778 47.8492 34.2155 47.8189 33.6368 47.7057C33.193 47.6153 32.6064 47.3694 31.9939 47.0257L31.9868 47.0218C31.9766 47.0162 31.7837 46.8847 31.7837 46.419L31.7837 37.9121C31.7837 37.1334 31.4758 36.3866 30.9278 35.8359C30.3798 35.2853 29.6366 34.976 28.8616 34.976C28.0867 34.976 27.3434 35.2853 26.7954 35.8359C26.2474 36.3866 25.9396 37.1334 25.9396 37.9121L25.9396 43.7639C25.4261 43.7936 24.96 43.7963 24.5688 43.7746C24.0776 43.7472 23.7763 43.6846 23.6448 43.6313L23.636 43.6279C23.5244 43.5842 23.2961 43.4431 22.9672 43.1507C22.6537 42.872 22.2955 42.498 21.925 42.0516L21.922 42.048C21.6765 41.7557 21.4572 41.466 21.2746 41.2168L21.2746 35.8001C21.2746 35.0214 20.9667 34.2746 20.4187 33.724C19.8707 33.1734 19.1275 32.864 18.3525 32.864C17.5775 32.864 16.8343 33.1734 16.2863 33.724C15.7383 34.2746 15.4305 35.0214 15.4305 35.8001L15.4305 39.1999L14.813 39.1999C14.3402 39.1999 13.8726 39.1003 13.4404 38.9075C13.0082 38.7148 12.621 38.4331 12.3038 38.0808C11.9866 37.7284 11.7464 37.3131 11.5987 36.8618C11.4511 36.4104 11.3993 35.9324 11.4466 35.4596L12.5857 23.9921C12.7214 22.6334 13.14 21.3184 13.8144 20.1328L17.2119 14.1566L19.6785 9.81799C19.7905 9.6209 19.9524 9.45706 20.1478 9.34308C20.3431 9.22914 20.5651 9.16908 20.7909 9.16895L31.0222 9.16895Z" fill="#4B4E59"/>
</svg>
