<svg width="587" height="228" viewBox="0 0 587 228" fill="none" xmlns="http://www.w3.org/2000/svg">
<path d="M141.818 191.294C146.169 180.799 153.665 170.947 161.416 162.787C166.868 157.048 173.015 153.572 179.678 149.87C183.825 147.566 192.99 145.265 195.961 150.315C199.38 156.128 200.946 162.366 197.495 168.578C193.956 174.947 188.32 181.415 183.242 186.493C179.164 190.571 172.107 200.437 165.87 201.093C159.872 201.724 153.743 202.875 147.608 202.875C141.546 202.875 143.063 191.475 144.49 188.621" stroke="#46428F" stroke-width="11" stroke-linecap="round"/>
<path d="M181.906 192.185C178.849 197.407 176.098 202.352 177.501 208.665C178.781 214.424 185.977 214.456 190.369 214.456C194.892 214.456 198.793 210.374 202.593 208.913C206.948 207.238 210.239 199.658 212.194 195.748C216.943 186.251 221.993 180.547 221.993 169.468C221.993 161.375 207.144 159.621 202.395 162.787" stroke="#46428F" stroke-width="11" stroke-linecap="round"/>
<path d="M222.884 170.805C227.237 167.638 232.313 165.126 236.444 169.716C237.835 171.261 238.771 172.947 239.81 174.764C240.98 176.812 244.085 177.752 245.155 180.159C248.483 187.646 248.755 197.14 246.986 205.102C244.993 214.069 237.919 218.019 229.12 218.019C217.012 218.019 218.43 198.773 218.43 191.294" stroke="#46428F" stroke-width="11" stroke-linecap="round"/>
<path d="M248.718 200.202C250.606 189.924 254.844 184.167 265.644 184.167C275.936 184.167 281.408 201.913 279.848 210.496C278.926 215.564 270.056 226.875 264.753 220.246C263.898 219.177 261.472 219.59 260.497 218.712C259.215 217.558 258.619 215.844 257.428 214.654C253.435 210.66 253.172 205.723 253.172 200.202" stroke="#46428F" stroke-width="11" stroke-linecap="round"/>
<path d="M204.176 49.6509C201.988 63.3288 201.504 77.244 201.504 91.0748C201.504 100.026 200.832 108.767 203.285 117.354C205.185 124.004 210.321 131.45 217.984 128.044C224.884 124.978 230.488 115.247 234.019 108.891C240.582 97.079 241.284 77.826 237.335 64.9931C236.442 62.0897 239.306 63.5124 240.898 64.1022C243.525 65.075 246.689 65.0292 249.114 66.1313C252.952 67.8761 260.351 66.6769 264.555 66.5768C269.965 66.448 277.24 63.9829 282.075 61.7267C285.808 59.9843 293.082 58.023 295.041 54.1051" stroke="#46428F" stroke-width="11" stroke-linecap="round"/>
<path d="M202.395 52.3235C207.838 43.0249 215.516 33.061 226.249 29.3597C241.257 24.1848 256.167 21.0698 271.534 17.086C275.517 16.0533 279.731 14.0175 283.906 14.0175C286.147 14.0175 288.778 14.369 290.983 13.968C292.92 13.616 299.7 11.6004 301.278 13.5721C306.085 19.5809 316.052 21.661 320.183 28.2709C323.695 33.8897 334.507 36.206 340.672 34.3088C354.61 30.0204 370.268 30.044 384.571 26.9347C391.711 25.3824 399.231 24.4887 406.446 23.7672C410.903 23.3215 415.294 21.6898 419.759 21.1937C425.635 20.5408 432.258 19.9953 437.971 18.4717C447.008 16.0621 456.279 15.1845 465.29 12.6813C472.465 10.6884 480.781 6 488.353 6" stroke="#46428F" stroke-width="11" stroke-linecap="round"/>
<path d="M446.484 120.918C461.892 118.567 477.277 115.167 492.411 111.514C503.115 108.931 514.083 107.761 524.679 104.685C533.701 102.066 544.918 98.6468 554.324 98.6468C563.21 98.6468 572.215 95.9743 581 95.9743" stroke="#46428F" stroke-width="11" stroke-linecap="round"/>
<path d="M290.588 59.4501C294.484 56.4983 298.801 52.6279 300.387 47.8693" stroke="#46428F" stroke-width="11" stroke-linecap="round"/>
<path d="M287.024 62.1225C298.296 62.1225 310.202 62.0299 320.876 66.1808C326.674 68.4356 331.04 71.7465 336.911 73.7034" stroke="#46428F" stroke-width="11" stroke-linecap="round"/>
<path d="M331.566 74.5944C342.919 81.2402 355.219 86.5383 367.397 91.5203C381.324 97.2175 394.484 103.412 409.514 105.724C418.417 107.094 426.134 113.019 434.012 116.959C439.99 119.948 448.279 121.276 452.521 126.461C454.38 128.732 455.392 134.075 455.392 136.953C455.392 141.247 455.865 143.607 452.719 146.752C450.372 149.1 445.427 152.809 442.029 152.988C437.144 153.245 430.02 154.262 425.549 152.543C421.002 150.794 416.645 148.294 411.741 147.593C407.964 147.054 403.813 146.721 400.16 145.416C396.706 144.182 392.253 143.592 388.629 143.139C382.362 142.356 378.58 139.426 374.326 135.171" stroke="#46428F" stroke-width="11" stroke-linecap="round"/>
<path d="M328.003 165.46C334.995 167.837 342.011 171.155 348.492 174.566C352.983 176.929 357.765 178.119 362.251 180.158C370.269 183.803 380.299 183.276 389.025 183.276C398.507 183.276 407.612 177.791 413.721 171.003C415.617 168.896 416.196 165.128 416.196 162.342C416.196 156.556 412.436 156.355 409.069 152.988" stroke="#46428F" stroke-width="11" stroke-linecap="round"/>
<path d="M288.806 190.403C292.196 191.809 294.967 192.785 298.407 193.768C300.434 194.347 302.264 194.249 303.95 195.748C306.294 197.831 311.621 197.683 314.64 199.113C322.038 202.618 330.446 203.309 338.693 202.875C344.915 202.547 352.115 199.008 356.51 194.857C360.873 190.736 360.169 182.434 354.728 179.713" stroke="#46428F" stroke-width="11" stroke-linecap="round"/>
<path d="M280.788 212.674C288.071 217.97 298.151 219.36 306.177 214.901C309.245 213.197 312.346 213.314 314.64 210.447C316.076 208.652 318.359 203.398 315.531 201.984" stroke="#46428F" stroke-width="11" stroke-linecap="round"/>
<path d="M161.416 41.6333C167.276 41.4904 172.628 38.5749 177.056 34.9521C179.829 32.6828 185.428 28.8351 189.032 28.3203C201.552 26.5318 214.02 27.3863 226.447 29.1616" stroke="#46428F" stroke-width="11" stroke-linecap="round"/>
<path d="M21.5554 17.5809C32.2237 19.8669 43.278 23.0401 53.6255 26.4892C57.885 27.9091 62.4335 29.1569 66.5426 30.9434C70.4269 32.6323 74.4789 32.2321 78.3709 33.6159C90.0596 37.7719 102.91 38.2856 115.044 39.8023C130.755 41.7661 147.258 40.7426 163.198 40.7426" stroke="#46428F" stroke-width="11" stroke-linecap="round"/>
<path d="M5.5202 120.918C24.5593 120.918 42.4879 121.374 59.8612 129.826C75.0324 137.207 92.5333 138.611 106.878 147.643C110.653 150.02 114.962 153.396 119.547 153.879C123.935 154.341 128.874 155.45 132.91 157.244C136.542 158.858 141.375 160.958 144.293 163.876C146.723 166.306 150.621 170.019 153.399 167.241" stroke="#46428F" stroke-width="11" stroke-linecap="round"/>
</svg>
