<svg width="283" height="212" viewBox="0 0 283 212" fill="none" xmlns="http://www.w3.org/2000/svg">
<path d="M64.5079 7.53805C50.9467 39.0679 31.8391 68.2072 16.3597 98.8564C13.8644 103.797 -2.78466 131.113 15.3804 124.236C30.5047 118.511 44.2873 106.656 56.5104 96.4898C75.6706 80.5534 92.891 62.5415 110.698 45.1589C116.971 39.0348 123.596 33.313 129.957 27.287C133.734 23.7088 131.305 30.3722 130.691 32.1834C125.271 48.1865 115.929 63.2301 108.168 78.1282C94.5875 104.197 80.8131 130.213 68.4251 156.879C67.8789 158.055 56.7765 182.982 62.1413 179.239C84.5838 163.582 101.869 135.301 118.532 114.28C145.671 80.0435 170.937 44.1091 198.588 10.3127C199.926 8.6773 202.93 4.43897 202.587 9.17019C201.438 25.0284 191.471 40.8845 184.389 54.5437C173.536 75.4735 161.762 95.9081 151.011 116.892C145.416 127.813 134.465 143.402 133.058 156.063C132.315 162.746 144.451 148.73 149.216 143.985C171.345 121.947 192.537 98.9414 214.339 76.5777C224.594 66.0575 234.432 54.6911 245.431 44.9141C256.374 35.1873 246.425 53.2822 244.86 56.1759C218.107 105.622 180.645 148.987 157.214 200.294C152.678 210.226 164.594 201.771 167.333 199.968C186.637 187.257 203.752 171.438 222.173 157.532C228.2 152.982 237.981 143.336 246.002 142.19C251.966 141.338 250.886 154.997 250.817 157.695C250.601 166.135 248.964 174.387 247.471 182.667C247.235 183.973 243.616 195.124 247.961 193.113C258.036 188.448 266.208 179.909 276.034 174.996" stroke="#E69C37" stroke-width="13" stroke-linecap="round"/>
</svg>
