<svg width="138" height="44" viewBox="0 0 138 44" fill="none" xmlns="http://www.w3.org/2000/svg">
<path fill-rule="evenodd" clip-rule="evenodd" d="M28.8054 6.72442L30.6345 7.73763C32.4257 8.72988 33.5358 10.6539 33.5205 12.7397L33.4592 21.1279C33.4591 21.1399 33.4639 21.1515 33.4724 21.1598L38.5111 26.0949C39.1433 26.7141 39.0253 27.78 38.2737 28.2385L35.5051 29.9272V32.4078C35.5051 32.8659 35.2791 33.293 34.9044 33.5431L33.2899 34.6205L34.2056 35.2344C34.7236 35.5816 35.0357 36.173 35.0357 36.807V42.5049C35.0357 43.4516 34.0593 44.0643 33.2359 43.6341L16.8831 35.0917L6.31581 28.3437V20.1507C6.31581 20.0169 6.35293 19.8876 6.36395 19.8492C6.36455 19.8472 6.36507 19.8453 6.3655 19.8438C6.38457 19.7765 6.40976 19.6986 6.43779 19.6166C6.49441 19.4509 6.5739 19.2351 6.66887 18.9859C6.85946 18.4858 7.1218 17.8264 7.41133 17.1112C7.99088 15.6796 8.68571 14.0087 9.14876 12.9069L9.29325 12.5631L17.5285 10.5783L23.8651 6.91358L28.8054 6.72442ZM24.2716 8.38523L18.062 11.9765L10.3372 13.8382C9.88337 14.9215 9.2705 16.3987 8.75161 17.6805C8.46325 18.3928 8.20549 19.0409 8.02046 19.5264C7.92762 19.77 7.85542 19.9666 7.8073 20.1074C7.78905 20.1609 7.7758 20.2018 7.76674 20.2316V27.5189L17.5978 33.7967L18.1705 34.0959L33.5848 42.1481V36.807C33.5848 36.6743 33.5194 36.5506 33.411 36.4779L31.6752 35.3141C31.1856 34.9858 31.1863 34.2506 31.6766 33.9234L34.0542 32.3367V29.803C34.0542 29.3562 34.2838 28.9425 34.6585 28.7139L37.3867 27.0498L32.5149 22.2782L32.4696 22.2339C32.1721 21.9426 32.0052 21.5383 32.0083 21.1167L32.0697 12.7286C32.0809 11.1925 31.2634 9.7756 29.9442 9.04488L29.1165 8.58633L28.4637 8.22471L24.2716 8.38523ZM7.7522 20.2845C7.7522 20.2845 7.75285 20.2806 7.7554 20.2709C7.75368 20.2795 7.7522 20.2845 7.7522 20.2845Z" fill="#23252B"/>
<path d="M29.7974 15.9332L25.2454 18.3385C25.0585 18.4373 25.0611 18.7118 25.2497 18.8069L29.8017 21.1012C29.9719 21.1869 30.1708 21.0601 30.1708 20.8659V16.1663C30.1708 15.9699 29.9678 15.8432 29.7974 15.9332Z" fill="#23252B"/>
<path fill-rule="evenodd" clip-rule="evenodd" d="M30.1281 16.1663C30.1281 16.0027 29.959 15.8971 29.8169 15.9721L25.265 18.3774C25.1093 18.4596 25.1114 18.6885 25.2686 18.7677L29.8206 21.062C29.9623 21.1334 30.1281 21.0277 30.1281 20.8659V16.1663ZM29.7778 15.8944C29.9766 15.7893 30.2135 15.9372 30.2135 16.1663V20.8659C30.2135 21.0925 29.9814 21.2404 29.7829 21.1404L25.2309 18.8461C25.0108 18.7352 25.0078 18.4149 25.2258 18.2997L29.7778 15.8944Z" fill="#23252B"/>
<path fill-rule="evenodd" clip-rule="evenodd" d="M16.4881 27.8881C16.8649 27.8729 17.1824 28.1735 17.1973 28.5594L17.2831 30.7937L17.3536 32.627C17.3767 33.2273 17.6845 33.7737 18.1705 34.0959C18.2217 34.1298 18.2749 34.1613 18.33 34.1901L27.4939 38.9791C27.8298 39.1546 27.9632 39.5759 27.7918 39.9199C27.6204 40.264 27.2092 40.4006 26.8733 40.2251L17.7094 35.436C16.6919 34.9043 16.034 33.8511 15.9891 32.682L15.8327 28.6144C15.8179 28.2285 16.1113 27.9033 16.4881 27.8881Z" fill="#23252B"/>
<path fill-rule="evenodd" clip-rule="evenodd" d="M18.478 19.5318V19.3844C18.478 17.3211 16.8451 15.6485 14.8307 15.6485H14.7227C11.7059 15.6485 9.26035 18.1535 9.26035 21.2435C9.26035 21.6021 9.29328 21.9528 9.35621 22.2926C9.8356 24.8811 12.056 26.8385 14.7227 26.8385H15.9328C16.1582 26.8385 16.3708 26.8951 16.5577 26.9952C16.9889 27.2262 17.2831 27.6887 17.2831 28.2217V30.7937V34.8813H4.71552C4.47815 34.8813 4.24329 34.8703 4.01139 34.8488V8.21765C4.01139 3.67917 7.60332 0 12.0342 0H29.2002C32.086 0 33.6046 3.5047 31.6686 5.69675L29.1165 8.58633L19.1983 19.816C19.1374 19.8849 19.0643 19.9268 18.9884 19.9452C18.7475 20.0036 18.478 19.8266 18.478 19.5318Z" fill="#23252B"/>
<path fill-rule="evenodd" clip-rule="evenodd" d="M29.4176 7.31763C30.7684 5.83515 33.0367 5.75498 34.4841 7.13858L38.1837 10.6753C39.6311 12.0589 39.7093 14.3823 38.3585 15.8648L33.0099 21.7349L38.0097 26.6319C38.2952 26.9116 38.2419 27.393 37.9025 27.6L35.0297 29.3523C34.8747 29.4469 34.7796 29.6181 34.7796 29.803V32.4078C34.7796 32.6147 34.6776 32.8076 34.5083 32.9205L32.0726 34.546C32.021 34.5804 32.0209 34.6578 32.0725 34.6924L33.8083 35.8561C34.1215 36.0661 34.3102 36.4237 34.3102 36.807V42.5049C34.3102 42.8966 33.9062 43.1502 33.5655 42.9722L17.2405 34.4442L15.7706 33.5056C15.1136 34.3443 14.1045 34.8813 12.973 34.8813H3.58465C1.6049 34.8813 0 33.2374 0 31.2096V25.9643C0 23.9364 1.6049 22.2926 3.58465 22.2926H7.04128V20.1507C7.04128 19.871 8.8905 15.4008 9.81511 13.2007L17.7952 11.2774L24.0684 7.64941L28.6345 7.47456L29.0599 7.71021L29.4176 7.31763ZM9.26035 21.2435C9.26035 21.6021 9.29328 21.9528 9.35621 22.2926C9.8356 24.8811 12.056 26.8385 14.7227 26.8385H15.9328C16.1582 26.8385 16.3708 26.8951 16.5577 26.9952C16.9889 27.2262 17.2831 27.6887 17.2831 28.2217V30.7937L17.3536 32.627C17.3767 33.2273 17.6845 33.7737 18.1705 34.0959L33.5848 42.1481V36.807C33.5848 36.6743 33.5194 36.5506 33.411 36.4779L31.6752 35.3141C31.1856 34.9858 31.1863 34.2506 31.6766 33.9234L34.0542 32.3367V29.803C34.0542 29.3562 34.2838 28.9425 34.6585 28.7139L37.3867 27.0498L32.5149 22.2782L32.4696 22.2339C32.1721 21.9426 32.0052 21.5383 32.0083 21.1167L32.0697 12.7286C32.0809 11.1925 31.2634 9.7756 29.9442 9.04488L29.1165 8.58633L19.1983 19.816C19.1374 19.8849 19.0643 19.9268 18.9884 19.9452C18.7475 20.0036 18.478 19.8266 18.478 19.5318V19.3844C18.478 17.3211 16.8451 15.6485 14.8307 15.6485H14.7227C11.7059 15.6485 9.26035 18.1535 9.26035 21.2435ZM29.7778 15.8944C29.9766 15.7893 30.2135 15.9372 30.2135 16.1663V20.8659C30.2135 21.0925 29.9814 21.2404 29.7829 21.1404L25.2309 18.8461C25.0108 18.7352 25.0078 18.4149 25.2258 18.2997L29.7778 15.8944Z" fill="#23252B"/>
<path d="M53.8044 20.4891H48.5674V5.18555H53.8499C56.1573 5.18555 58.0471 5.89699 59.5196 7.31987C60.992 8.72761 61.7282 10.4835 61.7282 12.5876C61.7282 15.0398 60.9996 16.9697 59.5424 18.3775C58.1003 19.7852 56.1876 20.4891 53.8044 20.4891ZM53.7361 8.06915H52.165V17.6282H53.7589C55.1706 17.6282 56.2559 17.1892 57.0149 16.3113C57.7891 15.4333 58.1762 14.1921 58.1762 12.5876C58.1762 11.2252 57.7891 10.1354 57.0149 9.31796C56.2407 8.48542 55.1478 8.06915 53.7361 8.06915Z" fill="#23252B"/>
<path d="M68.2316 18.2185C68.7022 18.2185 69.0665 18.0747 69.3246 17.7871C69.5826 17.4995 69.7117 17.106 69.7117 16.6064V15.7663H68.6415C68.0798 15.7663 67.6472 15.8874 67.3436 16.1296C67.04 16.3718 66.8882 16.6821 66.8882 17.0606C66.8882 17.8325 67.336 18.2185 68.2316 18.2185ZM69.8711 19.0813C69.3853 20.0653 68.429 20.5572 67.0021 20.5572C65.8788 20.5572 64.9984 20.2393 64.3608 19.6036C63.7384 18.9678 63.4272 18.1731 63.4272 17.2195C63.4272 16.1145 63.8295 15.2592 64.634 14.6538C65.4537 14.0331 66.6605 13.7228 68.2544 13.7228H69.7117V12.9281C69.7117 11.9594 69.0665 11.475 67.7762 11.475C66.5315 11.475 65.3778 11.8231 64.3153 12.5194V9.54501C65.226 9.03035 66.5391 8.77302 68.2544 8.77302C69.8938 8.77302 71.1158 9.12874 71.9203 9.84019C72.7249 10.5365 73.1271 11.6264 73.1271 13.1098V20.4891H69.8711V19.0813Z" fill="#23252B"/>
<path d="M86.325 20.4891H83.0006V13.632C83.0006 12.9508 82.8412 12.4362 82.5224 12.088C82.2037 11.7247 81.7559 11.5431 81.179 11.5431C80.5718 11.5431 80.0633 11.7853 79.6535 12.2697C79.2588 12.7389 79.0615 13.4504 79.0615 14.404V20.4891H75.7371V8.97737H79.0615V10.9301C79.3499 10.2943 79.7901 9.79477 80.3821 9.43149C80.9893 9.05306 81.7103 8.86385 82.5452 8.86385C83.7292 8.86385 84.6552 9.21957 85.3231 9.93101C85.991 10.6273 86.325 11.6566 86.325 13.019V20.4891Z" fill="#23252B"/>
<path d="M92.3835 20.4891H89.0591V8.97737H92.3835V20.4891ZM92.0875 4.27732C92.467 4.65575 92.6567 5.10986 92.6567 5.63966C92.6567 6.16945 92.467 6.62357 92.0875 7.00199C91.708 7.38042 91.2526 7.56963 90.7213 7.56963C90.19 7.56963 89.7346 7.38042 89.3551 7.00199C88.9756 6.62357 88.7859 6.16945 88.7859 5.63966C88.7859 5.10986 88.9756 4.65575 89.3551 4.27732C89.7346 3.8989 90.19 3.70969 90.7213 3.70969C91.2526 3.70969 91.708 3.8989 92.0875 4.27732Z" fill="#23252B"/>
<path d="M104.3 19.8306C103.511 20.3453 102.304 20.6026 100.68 20.6026C98.7825 20.6026 97.3025 20.0577 96.2399 18.9678C95.1925 17.8628 94.6688 16.4475 94.6688 14.7219C94.6688 12.8903 95.1773 11.4598 96.1944 10.4305C97.2266 9.38607 98.4941 8.86385 99.9969 8.86385C101.545 8.86385 102.767 9.31796 103.663 10.2262C104.558 11.1193 105.006 12.4589 105.006 14.2451C105.006 14.5932 104.946 15.1911 104.824 16.0388H98.0387C98.2664 16.6746 98.6611 17.1665 99.2227 17.5147C99.7844 17.8628 100.46 18.0369 101.249 18.0369C102.418 18.0369 103.435 17.7114 104.3 17.0606V19.8306ZM100.134 11.3842C99.6022 11.3842 99.1317 11.5809 98.7218 11.9745C98.312 12.3529 98.0387 12.9206 97.9021 13.6774H101.91V13.405C101.803 12.0578 101.211 11.3842 100.134 11.3842Z" fill="#23252B"/>
<path d="M110.817 20.4891H107.493V4.43626H110.817V20.4891Z" fill="#23252B"/>
<path d="M51.7324 39.951H48.2258L49.5465 24.6474H53.3945L55.5349 30.1876C55.8992 31.111 56.2104 31.9586 56.4684 32.7306C56.7265 33.5026 56.8935 34.0475 56.9694 34.3654L57.0832 34.8195C57.3261 33.8205 57.8574 32.2765 58.6771 30.1876L60.8402 24.6474H64.6883L66.2822 39.951H62.7756L62.2064 34.0248L61.9104 29.5518C61.5157 30.6871 60.9692 32.1781 60.271 34.0248L58.1079 39.7921H56.0358L53.8955 34.0248C53.5463 33.0863 53.2503 32.2462 53.0075 31.5045C52.7646 30.7628 52.6052 30.2482 52.5293 29.9605L52.4154 29.5518C52.4154 30.6266 52.3471 32.1176 52.2105 34.0248L51.7324 39.951Z" fill="#23252B"/>
<path d="M73.0124 37.6804C73.483 37.6804 73.8473 37.5366 74.1053 37.249C74.3634 36.9614 74.4924 36.5679 74.4924 36.0683V35.2282H73.4222C72.8606 35.2282 72.428 35.3493 72.1244 35.5915C71.8208 35.8337 71.669 36.144 71.669 36.5225C71.669 37.2944 72.1168 37.6804 73.0124 37.6804ZM74.6518 38.5432C74.166 39.5272 73.2097 40.0191 71.7828 40.0191C70.6595 40.0191 69.7791 39.7012 69.1415 39.0655C68.5192 38.4297 68.208 37.635 68.208 36.6814C68.208 35.5764 68.6102 34.7211 69.4148 34.1157C70.2345 33.495 71.4413 33.1847 73.0352 33.1847H74.4924V32.39C74.4924 31.4213 73.8473 30.9369 72.557 30.9369C71.3122 30.9369 70.1586 31.285 69.096 31.9813V29.0069C70.0068 28.4923 71.3198 28.2349 73.0352 28.2349C74.6746 28.2349 75.8965 28.5906 76.7011 29.3021C77.5056 29.9984 77.9079 31.0883 77.9079 32.5717V39.951H74.6518V38.5432Z" fill="#23252B"/>
<path d="M83.8194 39.951H80.4951L80.5178 28.4393H83.8194V30.5736C84.0319 29.9076 84.3811 29.3778 84.8668 28.9842C85.3678 28.5755 85.9446 28.3712 86.5973 28.3712C86.9616 28.3712 87.2501 28.4014 87.4626 28.462V31.5953C87.0983 31.4288 86.6808 31.3456 86.2102 31.3456C85.4968 31.3456 84.92 31.6105 84.4797 32.1403C84.0395 32.6549 83.8194 33.3437 83.8194 34.2065V39.951Z" fill="#23252B"/>
<path d="M95.6851 39.7012C95.1234 39.9434 94.3644 40.0645 93.4081 40.0645C90.782 40.0645 89.469 38.7552 89.469 36.1365V30.8688H87.8068V28.4393H89.469V25.7146H92.7933V28.4393H95.4802V30.8688H92.7933V36.1592C92.7933 36.5679 92.9072 36.8782 93.1349 37.0901C93.3778 37.302 93.6889 37.408 94.0684 37.408C94.6756 37.408 95.2145 37.2566 95.6851 36.9539V39.7012Z" fill="#23252B"/>
<path d="M101.167 39.951H97.8423V28.4393H101.167V39.951ZM101.053 27.3721H98.2977L100.256 23.3532H103.58L101.053 27.3721Z" fill="#23252B"/>
<path d="M114.609 39.951H111.285V33.0939C111.285 32.4127 111.125 31.8981 110.807 31.5499C110.488 31.1866 110.04 31.005 109.463 31.005C108.856 31.005 108.348 31.2472 107.938 31.7316C107.543 32.2008 107.346 32.9123 107.346 33.8659V39.951H104.021V28.4393H107.346V30.392C107.634 29.7562 108.074 29.2567 108.666 28.8934C109.273 28.515 109.995 28.3257 110.829 28.3257C112.013 28.3257 112.939 28.6815 113.607 29.3929C114.275 30.0892 114.609 31.1185 114.609 32.4809V39.951Z" fill="#23252B"/>
<path d="M126.292 39.2925C125.502 39.8072 124.296 40.0645 122.671 40.0645C120.774 40.0645 119.294 39.5196 118.231 38.4297C117.184 37.3247 116.66 35.9094 116.66 34.1838C116.66 32.3522 117.169 30.9217 118.186 29.8924C119.218 28.848 120.486 28.3257 121.988 28.3257C123.537 28.3257 124.759 28.7799 125.654 29.6881C126.55 30.5812 126.998 31.9208 126.998 33.707C126.998 34.0551 126.937 34.653 126.815 35.5007H120.03C120.258 36.1365 120.652 36.6284 121.214 36.9766C121.776 37.3247 122.451 37.4988 123.241 37.4988C124.409 37.4988 125.427 37.1733 126.292 36.5225V39.2925ZM122.125 30.8461C121.594 30.8461 121.123 31.0428 120.713 31.4364C120.303 31.8148 120.03 32.3825 119.894 33.1393H123.901V32.8669C123.795 31.5197 123.203 30.8461 122.125 30.8461Z" fill="#23252B"/>
<path d="M138 39.951H128.915V37.5669L133.97 30.9823H129.12V28.4393H137.727V30.7325L132.672 37.3853H138V39.951Z" fill="#23252B"/>
<path d="M126.357 4.84949C126.508 4.3148 127.268 4.32053 127.411 4.85744L128.356 8.41478C128.709 9.74003 129.744 10.7751 131.069 11.1274L134.626 12.073C135.163 12.2157 135.169 12.9757 134.634 13.1265L131.083 14.1281C129.803 14.4892 128.802 15.4896 128.441 16.7698L127.424 20.3763C127.275 20.9068 126.523 20.9068 126.373 20.3763L125.356 16.7698C124.995 15.4896 123.994 14.4892 122.714 14.1281L119.107 13.1109C118.577 12.9612 118.577 12.2092 119.107 12.0596L122.714 11.0424C123.994 10.6813 124.995 9.68082 125.356 8.40067L126.357 4.84949Z" fill="#E69C37"/>
</svg>
