<svg width="58" height="58" viewBox="0 0 58 58" fill="none" xmlns="http://www.w3.org/2000/svg">
<path d="M27.175 1.41387C27.7109 -0.486107 30.4112 -0.465731 30.9184 1.44211L34.2785 14.0826C35.5303 18.7917 39.2083 22.4697 43.9174 23.7215L56.5579 27.0816C58.4657 27.5888 58.4861 30.2891 56.5861 30.825L43.9675 34.3841C39.4187 35.6671 35.8636 39.2221 34.5806 43.771L30.9661 56.5861C30.4344 58.4713 27.7622 58.4713 27.2305 56.5861L23.6159 43.771C22.3329 39.2221 18.7779 35.6671 14.229 34.3841L1.41386 30.7695C-0.471284 30.2378 -0.47129 27.5656 1.41386 27.0339L14.229 23.4194C18.7779 22.1364 22.3329 18.5813 23.6159 14.0325L27.175 1.41387Z" fill="#46428F"/>
</svg>
